<?xml version="1.0" standalone="no"?>
<!DOCTYPE svg PUBLIC "-//W3C//DTD SVG 20010904//EN"
 "http://www.w3.org/TR/2001/REC-SVG-20010904/DTD/svg10.dtd">
<svg version="1.0" xmlns="http://www.w3.org/2000/svg"
 width="512.000000pt" height="512.000000pt" viewBox="0 0 512.000000 512.000000"
 preserveAspectRatio="xMidYMid meet">

<g transform="translate(0.000000,512.000000) scale(0.100000,-0.100000)"
fill="#000000" stroke="none">
<path d="M3968 5069 c-296 -206 -503 -327 -663 -389 -44 -17 -253 -80 -465
-141 -623 -179 -843 -252 -1038 -344 -209 -99 -278 -158 -346 -299 -95 -198
-192 -569 -262 -1011 -9 -60 -22 -113 -27 -117 -6 -3 -31 -9 -56 -13 -142 -21
-389 -131 -542 -242 -104 -74 -260 -237 -331 -344 -209 -316 -282 -685 -208
-1051 159 -779 939 -1268 1710 -1073 762 194 1214 976 996 1725 -14 47 -27 92
-31 101 -4 12 23 29 122 76 227 109 359 145 573 158 58 3 145 15 193 26 159
37 404 180 540 313 77 76 145 170 278 383 213 342 338 478 588 640 120 77 126
87 117 228 -30 536 -284 966 -758 1283 -96 65 -253 142 -289 142 -17 0 -56
-20 -101 -51z m181 -233 c262 -149 484 -377 601 -622 72 -149 125 -346 131
-486 l3 -58 -73 -50 c-245 -169 -375 -315 -608 -686 -69 -111 -153 -234 -187
-273 -99 -115 -284 -240 -433 -292 -37 -13 -118 -25 -228 -35 -93 -8 -207 -23
-252 -34 -206 -49 -443 -160 -722 -340 -209 -134 -371 -197 -526 -207 -109 -7
-181 11 -237 57 -32 26 -38 38 -38 69 0 114 191 339 420 494 41 28 147 83 235
122 369 165 619 343 737 524 40 61 48 81 48 120 0 88 -90 175 -272 260 -57 28
-110 57 -117 65 -30 36 -67 30 -280 -40 -130 -43 -213 -76 -224 -89 -10 -11
-80 -152 -157 -313 -76 -161 -140 -296 -143 -299 -3 -2 -29 2 -59 11 -74 21
-222 46 -277 46 -78 0 -78 0 -52 152 32 189 107 523 148 658 46 154 102 269
148 304 46 35 233 124 355 169 140 52 501 163 865 267 176 50 354 103 395 118
159 55 457 222 665 371 39 27 71 50 72 50 0 1 28 -14 62 -33z m-1495 -1649
c55 -28 101 -57 103 -63 6 -18 -115 -130 -207 -193 -47 -32 -123 -80 -170
-106 -94 -52 -301 -148 -307 -142 -2 2 47 110 108 240 l112 236 121 39 c66 22
126 40 131 41 6 0 55 -23 109 -52z m-986 -667 c50 -13 92 -26 92 -30 0 -4 -21
-25 -47 -46 -27 -21 -83 -73 -126 -117 l-77 -79 -22 27 c-47 60 -127 64 -179
9 -21 -22 -24 -37 -28 -109 l-3 -84 -52 -15 c-296 -86 -391 -466 -169 -677 92
-88 180 -119 338 -119 74 0 99 -4 135 -22 132 -67 129 -249 -4 -309 -36 -16
-69 -19 -268 -19 -125 0 -238 -4 -251 -9 -61 -24 -90 -95 -62 -154 27 -57 56
-67 204 -67 l131 0 0 -65 c0 -112 38 -165 119 -165 31 0 49 7 73 29 31 28 33
33 38 116 l5 87 57 18 c356 110 389 594 51 752 -61 29 -80 33 -198 39 -71 3
-141 11 -155 17 -86 36 -130 156 -86 240 23 45 80 85 123 86 36 1 37 0 45 -43
19 -108 128 -217 267 -266 114 -40 297 -36 459 11 95 28 277 111 364 167 l57
36 10 -32 c83 -260 60 -569 -59 -825 -128 -272 -371 -497 -650 -601 -162 -60
-395 -86 -560 -62 -620 91 -1061 648 -1000 1261 13 122 29 193 71 305 109 293
353 542 648 661 164 66 264 84 456 81 128 -3 178 -8 253 -27z"/>
</g>
</svg>
